mtllib etcube.mtl
v 1 -1 -1
v 1 -1 1
v -1 -1 1
v -1 -1 -1
v 1 1 -1
v 1 1 1
v -1 1 1
v -1 1 -1

#forest
vt 0 0.8333333
vt 0 1
vt 1 1
vt 1 0.8333333

#flower pit
vt 0 0.6666666
vt 0 0.8333333
vt 1 0.8333333
vt 1 0.6666666

#olive pit
vt 0 0.5
vt 0 0.6666666
vt 1 0.6666666
vt 1 0.5

#snake pit
vt 0 0.3333333
vt 0 0.5
vt 1 0.5
vt 1 0.3333333

#tar pit
vt 0 0.1666666
vt 0 0.3333333
vt 1 0.3333333
vt 1 0.1666666

#city
vt 0 0
vt 0 0.1666666
vt 1 0.1666666
vt 1 0

vn 0 -1 0
vn 0 1 0
vn 1 0 0
vn 0 0 1
vn -1 -0 0
vn 0 0 -1
usemtl materiaal
f 2/21/1 3/22/1 4/23/1
f 8/1/2 7/2/2 6/3/2
f 5/1/3 6/1/3 2/1/3
f 6/19/4 7/18/4 3/17/4
f 3/15/5 7/14/5 8/13/5
f 1/1/6 4/1/6 8/1/6
f 1/24/1 2/21/1 4/23/1
f 5/4/2 8/1/2 6/3/2
f 1/1/3 5/1/3 2/1/3
f 2/18/4 6/17/4 3/16/4
f 4/16/5 3/15/5 8/13/5
f 5/1/6 1/1/6 8/1/6


